<?xml version="1.0" encoding="UTF-8" standalone="no"?>
<!-- Generator: Adobe Illustrator 16.0.0, SVG Export Plug-In . SVG Version: 6.00 Build 0)  -->

<svg
   xmlns:dc="http://purl.org/dc/elements/1.1/"
   xmlns:cc="http://creativecommons.org/ns#"
   xmlns:rdf="http://www.w3.org/1999/02/22-rdf-syntax-ns#"
   xmlns:svg="http://www.w3.org/2000/svg"
   xmlns="http://www.w3.org/2000/svg"
   xmlns:sodipodi="http://sodipodi.sourceforge.net/DTD/sodipodi-0.dtd"
   xmlns:inkscape="http://www.inkscape.org/namespaces/inkscape"
   version="1.1"
   id="Layer_1"
   x="0px"
   y="0px"
   width="194"
   height="70.992996"
   viewBox="0 0 194 70.992996"
   enable-background="new 0 0 350 130"
   xml:space="preserve"
   inkscape:version="0.91 r13725"
   sodipodi:docname="logo-bsc.svg"><metadata
   id="metadata4217"><rdf:RDF><cc:Work
       rdf:about=""><dc:format>image/svg+xml</dc:format><dc:type
         rdf:resource="http://purl.org/dc/dcmitype/StillImage" /><dc:title></dc:title></cc:Work></rdf:RDF></metadata><defs
   id="defs4215" /><sodipodi:namedview
   pagecolor="#ffffff"
   bordercolor="#666666"
   borderopacity="1"
   objecttolerance="10"
   gridtolerance="10"
   guidetolerance="10"
   inkscape:pageopacity="0"
   inkscape:pageshadow="2"
   inkscape:window-width="1536"
   inkscape:window-height="803"
   id="namedview4213"
   showgrid="false"
   inkscape:zoom="2.6142857"
   inkscape:cx="175"
   inkscape:cy="65"
   inkscape:window-x="1912"
   inkscape:window-y="-8"
   inkscape:window-maximized="1"
   inkscape:current-layer="Layer_1" />
<g
   id="g4137"
   transform="matrix(0.55428413,0,0,0.55428413,-1.1798279,-1.3923177)">
	<g
   id="g4139">
		<g
   id="g4141">
			<path
   d="M 90.204,15.499 C 82.723,11 85.361,11.725 82.56,9.938 c 1.418,0.536 2.912,0.923 4.262,1.634 5.542,2.64 12.285,9.03 10.522,8.326 -0.47,-0.361 -4.051,-2.407 -7.14,-4.399 z"
   id="path4143"
   inkscape:connector-curvature="0"
   style="fill:#e87d3a" />
			<path
   d="m 99.857,19.637 c -0.672,-0.528 -0.728,-0.683 -1.401,-1.213 l 2.361,1.089 -0.96,0.124 z"
   id="path4145"
   inkscape:connector-curvature="0"
   style="fill:#e87d3a" />
			<path
   d="M 76.144,8.094 C 74.805,7.649 73.386,7.538 72.011,7.255 71.061,7 73.441,7.332 73.332,7.225 71.782,6.885 70.253,6.337 68.665,6.158 c 6.351,1.271 6.399,0.753 7.479,1.936 z"
   id="path4147"
   inkscape:connector-curvature="0"
   style="fill:#e87d3a" />
			<path
   d="m 21.905,17.918 c -2.773,2.013 1.508,-2.208 2.5,-3.24 2.214,-1.853 4.686,-2.704 2.905,-1.268 -3.064,2.144 -4.002,3.396 -5.405,4.508 z"
   id="path4149"
   inkscape:connector-curvature="0"
   style="fill:#e87d3a" />
			<path
   d="M 51.652,7.34 C 53.074,6.098 62.407,6.042 61.465,5.605 61.058,5.353 60.643,5.1 59.503,4.946 57.918,5.079 56.353,5.439 54.791,5.672 43.016,7.357 59.583,4.004 51.566,4.8 c -1.719,0.361 -2.583,0.543 -3.283,0.779 -3.754,1.328 -2.567,1.211 -0.312,0.86 -10.833,3.381 -7.303,0.67 -13.106,3.2 -7.563,4.371 -2.254,2.753 -3.884,4.086 -0.496,-1.316 -14.5,7.25 -20.748,18.992 -5.547,10.541 -9.866,24.339 -6.945,38.747 0.799,6.106 3.007,14.035 7.105,21.138 l -0.14,0.083 c 0.131,0.151 0.233,0.238 0.284,0.208 2.093,5.946 12.745,15.394 13.482,16.749 l 1.212,0.852 c 6.012,4.251 -0.311,0.414 3.066,3.015 5.672,3.808 13.926,8.227 17.714,7.983 0.517,0.223 -0.208,0.063 0.309,0.287 1.784,0.546 3.649,0.732 5.477,1.053 0.41,-0.165 1.541,-0.244 0.684,-0.668 1.251,0.302 2.389,0.106 4.193,0.354 4.557,0.43 0.508,0.546 2.141,0.905 11.702,0.622 24.848,-2.763 34.673,-8.062 0.512,0.933 11.237,-6.536 14.54,-10.994 8.081,-7.646 12.171,-20.06 14.324,-27.852 -0.48,4.938 -4.132,12.642 -4.222,13.632 0.419,-0.636 0.891,-1.251 1.228,-1.932 2.378,-4.555 4.772,-12.494 4.518,-15.625 -0.849,2.739 -1.186,2.853 -1.607,3.718 0.246,-2.24 0.125,-2.644 0.475,-5.394 0.428,-4.063 0.577,-8.495 0.927,-8.511 0.254,2.255 -0.073,4.668 -0.256,6.717 0.535,0.811 1,-6.507 0.931,-8.981 -1.048,4.281 -1.622,-6.897 -2.209,4.46 -0.142,-2.063 -0.074,-4.13 -0.395,-6.167 -0.657,-2.299 -0.429,2.661 -0.789,6.82 -0.591,4.158 -1.15,7.463 -1.235,2.246 -0.239,-1.063 -0.552,0.292 -0.688,-3.169 -0.415,1.88 -0.682,5.635 -0.717,7.197 -0.713,2.524 -3.84,14.08 -5.184,13.889 -3.375,9.135 -7.626,12.085 -13.863,17.896 -8.638,6.751 -2.594,2.896 -4.805,5.288 -4.671,3.095 -9.668,5.625 -12.767,7.154 -2.934,0.97 -4.848,1.071 -2.929,0.358 -22.26,6.05 -47.337,-2.81 -60.497,-21.225 C 13.525,87.221 9.331,79.497 9.026,70.509 l 0.093,1.469 C 9.048,72.207 8.753,71.107 8.545,70.239 8.596,71.71 8.677,73.15 8.719,74.543 8.204,71.922 7.834,69.27 7.633,66.633 6.161,63.716 7.902,51.477 8.511,47.713 c 2.194,-7.128 3.593,-8.898 4.684,-10.75 1.183,-1.797 2.142,-3.82 6.926,-9.458 C 24.843,21.192 32.28,14.748 41.214,11.422 44.37,10.031 47.575,9.835 47.045,10.07 50.938,8.829 56.77,7.944 60.997,8.035 79.202,8.495 58.703,5.29 51.652,7.34 Z"
   id="path4151"
   inkscape:connector-curvature="0"
   style="fill:#e87d3a" />
			<path
   d="m 81.993,121.718 c -0.551,0.793 4.324,-0.833 5.988,-1.361 0.694,-0.327 1.378,-0.671 2.023,-1.097 5.009,-2.828 4.856,-3.375 1.563,-1.958 -0.913,1.086 -6.463,3.592 -9.574,4.416 z"
   id="path4153"
   inkscape:connector-curvature="0"
   style="fill:#e87d3a" />
			<path
   d="m 37.25,119.803 0.889,-0.154 c -2.216,-0.732 -4.214,-1.949 -6.324,-2.935 0.028,0.309 2.998,2.024 5.435,3.089 z"
   id="path4155"
   inkscape:connector-curvature="0"
   style="fill:#e87d3a" />
			<path
   d="m 116.854,41.156 c 2.133,5.883 2.331,8.429 3.385,14.89 l 0.733,-1.354 c -0.562,-6.436 -1.978,-13.398 -5.72,-20.354 -3.066,-4.31 3.635,8.73 1.602,6.818 z"
   id="path4157"
   inkscape:connector-curvature="0"
   style="fill:#e87d3a" />
			<path
   d="m 118.87,54.448 c -2.245,-10.819 -7.338,-23.321 -14.78,-29.36 0.06,1.678 3.039,5.054 5.887,9.321 2.693,4.323 5.314,9.481 5.839,12.97 1.488,4.343 2.165,7.026 2.867,12.82 0.57,4.293 0.584,-2.783 0.187,-5.751 z"
   id="path4159"
   inkscape:connector-curvature="0"
   style="fill:#e87d3a" />
			<path
   d="m 102.729,22.338 c -0.854,-0.873 -1.914,-1.782 -2.441,-2.236 -0.747,-0.461 0.778,1.208 1.402,2.046 0.836,0.856 3.384,2.761 1.039,0.19 z"
   id="path4161"
   inkscape:connector-curvature="0"
   style="fill:#e87d3a" />
		</g>
	</g>
	<path
   d="m 172.157,37.489 c 0,-2.825 0,-5.648 0.233,-8.474 2.81,-0.109 5.617,-0.324 8.424,-0.324 4.215,0 9.361,0.215 13.103,1.955 4.562,2.064 6.789,7.169 6.789,11.625 0,5.864 -3.275,10.644 -9.01,13.143 -6.32,2.717 -12.869,2.174 -19.655,2.283 l 0.116,-9.345 0,-10.863 z m -1.52,-12.603 c -2.924,0 -5.732,0 -8.658,-0.215 l 0.47,10.537 0.233,13.035 -0.233,36.938 c -0.117,4.67 -0.47,9.233 -0.82,13.796 l 2.923,0 14.042,0 c 8.069,0.108 17.784,0.108 24.686,-4.345 6.781,-4.347 10.528,-10.645 10.528,-18.361 0,-2.824 -1.288,-6.301 -2.928,-8.581 -1.633,-2.39 -4.094,-4.021 -6.548,-5.433 -2.575,-1.521 -7.606,-2.283 -10.529,-2.933 -0.472,-0.108 -0.938,-0.108 -1.407,-0.108 10.296,-2.39 18.484,-9.016 18.484,-19.227 0,-4.129 -1.867,-8.256 -5.261,-10.974 -3.161,-2.608 -6.908,-3.258 -11.002,-3.911 -3.273,-0.434 -6.547,-0.434 -9.822,-0.434 l -5.148,0 -9.01,0.216 z m 1.404,36.828 c 2.224,0 4.446,0 6.667,0 5.5,0 12.169,0 16.85,2.935 5.495,3.364 7.369,7.386 7.369,13.469 0,4.455 -2.221,9.018 -5.615,12.06 -3.981,3.693 -8.542,4.78 -14.037,4.78 -3.747,0 -7.375,-0.435 -11,-0.544 l -0.234,-32.7 z"
   id="path4163"
   inkscape:connector-curvature="0"
   style="fill:#0156ad" />
	<path
   d="m 227.547,83.783 c 4.51,6.711 9.716,10.694 18.732,10.694 9.366,0 16.075,-6.813 16.075,-15.098 0,-7.023 -5.206,-10.586 -11.679,-13.21 -5.438,-2.304 -11.338,-3.984 -16.307,-7.024 -5.207,-3.146 -8.212,-8.702 -8.212,-14.361 0,-13.527 11.798,-20.131 25.672,-20.131 5.55,0 12.259,1.571 16.537,5.033 -1.386,2.723 -2.195,5.659 -3.124,8.596 l -1.154,0 c -2.426,-5.66 -7.514,-9.436 -14.335,-9.436 -7.981,0 -14.573,5.14 -14.573,12.582 0,3.983 1.62,7.232 4.97,9.751 1.852,1.469 2.314,1.571 4.515,2.516 1.385,0.629 2.888,1.257 4.391,1.781 1.732,0.631 3.473,1.258 5.206,1.993 1.732,0.735 3.698,1.363 5.318,2.202 2.545,1.259 5.433,2.515 7.284,4.509 2.894,3.25 4.739,6.813 4.739,11.115 0,14.991 -12.833,23.694 -28.561,23.694 -5.667,0 -14.921,-1.992 -18.85,-5.872 1.153,-3.039 1.734,-6.186 2.195,-9.332 l 1.161,0 z"
   id="path4165"
   inkscape:connector-curvature="0"
   style="fill:#0156ad" />
	<path
   d="m 346.763,37.591 c -0.461,-0.315 -0.692,-0.841 -1.271,-1.154 -5.55,-4.726 -13.071,-7.876 -20.816,-7.876 -21.281,0 -31.919,15.649 -31.919,33.5 0,3.888 0.928,9.453 1.97,13.13 1.154,3.886 2.888,6.932 5.661,10.081 5.669,6.408 14.456,9.872 23.479,9.872 8.324,0 16.537,-3.044 23.128,-7.562 0.461,-0.21 0.922,-0.736 1.852,-0.736 l -1.041,6.407 c -7.289,4.412 -16.768,5.882 -25.56,5.882 -25.441,0 -40.707,-14.492 -40.707,-37.495 0,-10.083 4.745,-21.213 13.3,-27.831 8.557,-6.511 19.199,-9.24 30.301,-9.24 8.441,0 17.116,1.784 24.861,4.83 -1.154,2.626 -1.852,5.355 -2.427,8.087 l -0.811,0.105 z"
   id="path4167"
   inkscape:connector-curvature="0"
   style="fill:#0156ad" />
	<path
   d="m 219.459,118.604 c -0.052,-1.329 -1.076,-1.922 -2.303,-1.922 -0.951,0 -2.078,0.374 -2.078,1.517 0,0.951 1.094,1.292 1.826,1.479 l 1.429,0.325 c 1.227,0.187 2.503,0.902 2.503,2.437 0,1.908 -1.89,2.64 -3.521,2.64 -2.05,0 -3.445,-0.954 -3.613,-3.1 l 1.068,0 c 0.091,1.448 1.16,2.196 2.596,2.196 1.002,0 2.396,-0.442 2.396,-1.667 0,-1.024 -0.95,-1.366 -1.925,-1.604 l -1.379,-0.308 c -1.396,-0.373 -2.454,-0.85 -2.454,-2.35 0,-1.788 1.758,-2.47 3.311,-2.47 1.755,0 3.151,0.922 3.22,2.827 l -1.076,0 z"
   id="path4169"
   inkscape:connector-curvature="0"
   style="fill:#0156ad" />
	<path
   d="m 221.4,116.034 1.144,0 2.897,7.496 2.708,-7.496 1.069,0 -3.811,10.134 c -0.619,1.484 -0.974,1.912 -2.318,1.912 -0.428,-0.017 -0.647,-0.017 -0.821,-0.086 l 0,-0.905 c 0.258,0.052 0.499,0.086 0.736,0.086 0.951,0 1.171,-0.563 1.531,-1.38 l 0.376,-1.005 -3.511,-8.756 z"
   id="path4171"
   inkscape:connector-curvature="0"
   style="fill:#0156ad" />
	<path
   d="m 235.539,118.604 c -0.044,-1.329 -1.068,-1.922 -2.295,-1.922 -0.957,0 -2.078,0.374 -2.078,1.517 0,0.951 1.086,1.292 1.823,1.479 l 1.43,0.325 c 1.229,0.187 2.506,0.902 2.506,2.437 0,1.908 -1.891,2.64 -3.53,2.64 -2.043,0 -3.438,-0.954 -3.613,-3.1 l 1.074,0 c 0.092,1.448 1.161,2.196 2.591,2.196 1.007,0 2.403,-0.442 2.403,-1.667 0,-1.024 -0.957,-1.366 -1.925,-1.604 l -1.379,-0.308 c -1.396,-0.373 -2.454,-0.85 -2.454,-2.35 0,-1.788 1.756,-2.47 3.303,-2.47 1.757,0 3.151,0.922 3.219,2.827 l -1.075,0 z"
   id="path4173"
   inkscape:connector-curvature="0"
   style="fill:#0156ad" />
	<path
   d="m 240.177,116.034 1.79,0 0,0.902 -1.79,0 0,5.932 c 0,0.695 0.103,1.104 0.868,1.155 0.309,0 0.613,-0.016 0.922,-0.05 l 0,0.92 c -0.326,0 -0.629,0.035 -0.957,0.035 -1.429,0 -1.924,-0.479 -1.907,-1.978 l 0,-6.014 -1.531,0 0,-0.902 1.531,0 0,-2.643 1.074,0 0,2.643 z"
   id="path4175"
   inkscape:connector-curvature="0"
   style="fill:#0156ad" />
	<path
   d="m 244.146,119.815 c 0.168,-1.603 1.143,-3.134 2.897,-3.134 1.735,0 2.741,1.517 2.793,3.134 l -5.69,0 z m 6.766,0.903 c 0.084,-2.471 -1.042,-4.941 -3.868,-4.941 -2.791,0 -3.968,2.334 -3.968,4.65 0,2.506 1.177,4.652 3.968,4.652 2.213,0 3.372,-1.159 3.833,-3.151 l -1.074,0 c -0.338,1.329 -1.192,2.248 -2.759,2.248 -2.065,0 -2.881,-1.892 -2.897,-3.458 l 6.765,0 z"
   id="path4177"
   inkscape:connector-curvature="0"
   style="fill:#0156ad" />
	<path
   d="m 252.358,116.034 0.99,0 0,1.481 0.052,0 c 0.563,-1.056 1.479,-1.738 2.882,-1.738 1.153,0 2.194,0.562 2.516,1.721 0.534,-1.159 1.638,-1.721 2.797,-1.721 1.925,0 2.916,1.005 2.916,3.083 l 0,5.965 -1.076,0 0,-5.913 c 0,-1.448 -0.546,-2.23 -2.075,-2.23 -1.863,0 -2.388,1.531 -2.388,3.168 l 0,4.975 -1.075,0 0,-5.965 c 0.017,-1.192 -0.479,-2.179 -1.84,-2.179 -1.857,0 -2.606,1.395 -2.624,3.234 l 0,4.909 -1.074,0 0,-8.79 z"
   id="path4179"
   inkscape:connector-curvature="0"
   style="fill:#0156ad" />
	<path
   d="m 271.816,118.604 c -0.05,-1.329 -1.068,-1.922 -2.302,-1.922 -0.951,0 -2.077,0.374 -2.077,1.517 0,0.951 1.092,1.292 1.823,1.479 l 1.431,0.325 c 1.227,0.187 2.51,0.902 2.51,2.437 0,1.908 -1.896,2.64 -3.529,2.64 -2.049,0 -3.444,-0.954 -3.613,-3.1 l 1.076,0 c 0.083,1.448 1.152,2.196 2.588,2.196 1.002,0 2.404,-0.442 2.404,-1.667 0,-1.024 -0.957,-1.366 -1.926,-1.604 l -1.385,-0.308 c -1.396,-0.373 -2.453,-0.85 -2.453,-2.35 0,-1.788 1.755,-2.47 3.309,-2.47 1.757,0 3.151,0.922 3.221,2.827 l -1.077,0 z"
   id="path4181"
   inkscape:connector-curvature="0"
   style="fill:#0156ad" />
	<path
   d="m 285.104,121.416 c 0.019,1.722 -1.429,2.761 -3.061,2.761 -1.007,0 -1.964,-0.664 -1.964,-1.737 0,-1.722 2.269,-1.705 4.091,-2.029 0.288,-0.052 0.766,-0.135 0.901,-0.391 l 0.032,0 0,1.396 z m -4.648,-2.692 c 0.035,-1.431 1.02,-2.042 2.354,-2.042 1.26,0 2.295,0.355 2.295,1.804 0,0.972 -0.494,1.091 -1.377,1.192 -2.313,0.273 -4.718,0.359 -4.718,2.831 0,1.769 1.329,2.571 2.943,2.571 1.689,0 2.455,-0.646 3.203,-1.788 l 0.034,0 c 0,0.919 0.175,1.534 1.262,1.534 0.293,0 0.461,-0.019 0.704,-0.067 l 0,-0.905 c -0.091,0.034 -0.226,0.067 -0.344,0.067 -0.428,0 -0.631,-0.237 -0.631,-0.648 l 0,-4.669 c 0,-2.35 -1.69,-2.827 -3.237,-2.827 -2.01,0 -3.463,0.886 -3.563,2.947 l 1.075,0 z"
   id="path4183"
   inkscape:connector-curvature="0"
   style="fill:#0156ad" />
	<path
   d="m 288.309,116.034 1.075,0 0,1.516 0.034,0 c 0.394,-1.056 1.57,-1.772 2.815,-1.772 2.464,0 3.218,1.295 3.218,3.39 l 0,5.659 -1.075,0 0,-5.488 c 0,-1.516 -0.495,-2.656 -2.228,-2.656 -1.706,0 -2.73,1.292 -2.765,3.013 l 0,5.13 -1.075,0 0,-8.792 z"
   id="path4185"
   inkscape:connector-curvature="0"
   style="fill:#0156ad" />
	<path
   d="m 298.176,120.427 c 0,-1.824 0.834,-3.746 2.882,-3.746 2.28,0 3.079,1.922 3.079,3.746 0,1.826 -0.799,3.749 -3.079,3.749 -2.048,0 -2.882,-1.923 -2.882,-3.749 z m 7.035,-7.768 -1.074,0 0,5.042 -0.034,0 c -0.456,-1.259 -1.733,-1.924 -3.045,-1.924 -2.679,0 -3.958,2.165 -3.958,4.65 0,2.489 1.279,4.652 3.958,4.652 1.271,0 2.674,-0.784 3.135,-1.925 l 0.029,0 0,1.67 0.989,0 0,-12.165 z"
   id="path4187"
   inkscape:connector-curvature="0"
   style="fill:#0156ad" />
	<path
   d="m 312.011,114.378 1.074,0 0,-1.719 -1.074,0 0,1.719 z m 0,10.447 1.074,0 0,-8.792 -1.074,0 0,8.792 z"
   id="path4189"
   inkscape:connector-curvature="0"
   style="fill:#e87d3a" />
	<path
   d="m 315.844,120.427 c 0,-1.824 0.834,-3.746 2.883,-3.746 2.279,0 3.083,1.922 3.083,3.746 0,1.826 -0.804,3.749 -3.083,3.749 -2.049,0 -2.883,-1.923 -2.883,-3.749 z m 7.037,-7.768 -1.071,0 0,5.042 -0.038,0 c -0.457,-1.259 -1.734,-1.924 -3.045,-1.924 -2.681,0 -3.957,2.165 -3.957,4.65 0,2.489 1.276,4.652 3.957,4.652 1.278,0 2.673,-0.784 3.135,-1.925 l 0.027,0 0,1.67 0.992,0 0,-12.165 z"
   id="path4191"
   inkscape:connector-curvature="0"
   style="fill:#e87d3a" />
	<path
   d="m 325.555,119.815 c 0.174,-1.603 1.142,-3.134 2.897,-3.134 1.74,0 2.741,1.517 2.799,3.134 l -5.696,0 z m 6.764,0.903 c 0.085,-2.471 -1.042,-4.941 -3.867,-4.941 -2.792,0 -3.968,2.334 -3.968,4.65 0,2.506 1.176,4.652 3.968,4.652 2.212,0 3.377,-1.159 3.834,-3.151 l -1.076,0 c -0.337,1.329 -1.191,2.248 -2.758,2.248 -2.061,0 -2.882,-1.892 -2.897,-3.458 l 6.764,0 z"
   id="path4193"
   inkscape:connector-curvature="0"
   style="fill:#e87d3a" />
	<path
   d="m 339.389,121.416 c 0.023,1.722 -1.43,2.761 -3.061,2.761 -1.009,0 -1.966,-0.664 -1.966,-1.737 0,-1.722 2.269,-1.705 4.093,-2.029 0.286,-0.052 0.765,-0.135 0.899,-0.391 l 0.034,0 0,1.396 z m -4.649,-2.692 c 0.033,-1.431 1.024,-2.042 2.352,-2.042 1.262,0 2.297,0.355 2.297,1.804 0,0.972 -0.495,1.091 -1.379,1.192 -2.313,0.273 -4.717,0.359 -4.717,2.831 0,1.769 1.328,2.571 2.944,2.571 1.688,0 2.454,-0.646 3.208,-1.788 l 0.028,0 c 0,0.919 0.174,1.534 1.261,1.534 0.293,0 0.462,-0.019 0.703,-0.067 l 0,-0.905 c -0.09,0.034 -0.225,0.067 -0.343,0.067 -0.428,0 -0.631,-0.237 -0.631,-0.648 l 0,-4.669 c 0,-2.35 -1.683,-2.827 -3.237,-2.827 -2.008,0 -3.46,0.886 -3.563,2.947 l 1.077,0 z"
   id="path4195"
   inkscape:connector-curvature="0"
   style="fill:#e87d3a" />
	<path
   d="m 347.877,118.604 c -0.051,-1.329 -1.074,-1.922 -2.302,-1.922 -0.951,0 -2.077,0.374 -2.077,1.517 0,0.951 1.092,1.292 1.823,1.479 l 1.431,0.325 c 1.227,0.187 2.504,0.902 2.504,2.437 0,1.908 -1.891,2.64 -3.527,2.64 -2.046,0 -3.44,-0.954 -3.609,-3.1 l 1.068,0 c 0.09,1.448 1.161,2.196 2.596,2.196 1.002,0 2.398,-0.442 2.398,-1.667 0,-1.024 -0.951,-1.366 -1.925,-1.604 l -1.379,-0.308 c -1.397,-0.373 -2.455,-0.85 -2.455,-2.35 0,-1.788 1.756,-2.47 3.306,-2.47 1.755,0 3.15,0.922 3.218,2.827 l -1.07,0 z"
   id="path4197"
   inkscape:connector-curvature="0"
   style="fill:#e87d3a" />
	<rect
   y="57.354"
   width="10.425"
   height="10.427"
   id="rect4199"
   x="0"
   style="fill:#0156ad" />
	<g
   id="g4201">
		<g
   id="g4203">
			<rect
   x="57.431999"
   width="10.424"
   height="10.428"
   id="rect4205"
   y="0"
   style="fill:#0156ad" />
		</g>
	</g>
	<rect
   x="57.431999"
   y="114.651"
   width="10.424"
   height="10.426"
   id="rect4207"
   style="fill:#0156ad" />
	<rect
   x="114.754"
   y="57.354"
   width="10.424"
   height="10.427"
   id="rect4209"
   style="fill:#0156ad" />
	<rect
   x="57.431999"
   y="57.354"
   width="10.424"
   height="10.427"
   id="rect4211"
   style="fill:#0156ad" />
</g>
</svg>